<?xml version="1.0" encoding="utf-8"?>
<!-- Generator: Adobe Illustrator 15.0.0, SVG Export Plug-In . SVG Version: 6.00 Build 0)  -->
<!DOCTYPE svg PUBLIC "-//W3C//DTD SVG 1.1//EN" "http://www.w3.org/Graphics/SVG/1.1/DTD/svg11.dtd">
<svg version="1.1" id="bristol" xmlns="http://www.w3.org/2000/svg" xmlns:xlink="http://www.w3.org/1999/xlink" x="0px" y="0px"
	 width="720px" height="540px" viewBox="0 0 720 540" enable-background="new 0 0 720 540" xml:space="preserve">
<path d="M504.678,115.975H215.299c-86.285,0-156.226,69.132-156.226,154.396c0,85.287,69.941,154.414,156.226,154.414h289.378
	c86.281,0,156.237-69.127,156.237-154.414C660.915,185.106,590.959,115.975,504.678,115.975z M202.569,145.152h289.995
	c1.996,0,3.611,1.618,3.611,3.62c0,1.995-1.615,3.615-3.611,3.615H202.569c-1.998,0-3.614-1.62-3.614-3.615
	C198.956,146.771,200.572,145.152,202.569,145.152z M492.564,395.77H202.569c-1.998,0-3.614-1.614-3.614-3.611
	c0-2,1.616-3.615,3.614-3.615h289.995c1.996,0,3.611,1.615,3.611,3.615C496.176,394.155,494.561,395.77,492.564,395.77z
	 M529.406,361.262H186.001c-50.331,0-91.136-40.688-91.136-90.892c0-50.181,40.806-90.869,91.136-90.869h343.405
	c50.324,0,91.135,40.688,91.135,90.869C620.541,320.573,579.73,361.262,529.406,361.262z"/>
</svg>
